<?xml version="1.0" encoding="UTF-8" standalone="no"?>
<svg
   xmlns:dc="http://purl.org/dc/elements/1.1/"
   xmlns:cc="http://creativecommons.org/ns#"
   xmlns:rdf="http://www.w3.org/1999/02/22-rdf-syntax-ns#"
   xmlns:svg="http://www.w3.org/2000/svg"
   xmlns="http://www.w3.org/2000/svg"
   xmlns:sodipodi="http://sodipodi.sourceforge.net/DTD/sodipodi-0.dtd"
   xmlns:inkscape="http://www.inkscape.org/namespaces/inkscape"
   inkscape:version="1.0 (4035a4fb49, 2020-05-01)"
   sodipodi:docname="logo-dark.svg"
   xml:space="preserve"
   style="enable-background:new 0 0 140 50;"
   viewBox="0 0 140 50"
   y="0px"
   x="0px"
   id="Capa_1"
   version="1.1"><metadata
   id="metadata73"><rdf:RDF><cc:Work
       rdf:about=""><dc:format>image/svg+xml</dc:format><dc:type
         rdf:resource="http://purl.org/dc/dcmitype/StillImage" /></cc:Work></rdf:RDF></metadata><defs
   id="defs71"><pattern
     id="EMFhbasepattern"
     patternUnits="userSpaceOnUse"
     width="6"
     height="6"
     x="0"
     y="0" /><pattern
     id="EMFhbasepattern-0"
     patternUnits="userSpaceOnUse"
     width="6"
     height="6"
     x="0"
     y="0" /><pattern
     id="EMFhbasepattern-4"
     patternUnits="userSpaceOnUse"
     width="6"
     height="6"
     x="0"
     y="0" /></defs><sodipodi:namedview
   inkscape:current-layer="Capa_1"
   inkscape:window-maximized="1"
   inkscape:window-y="17"
   inkscape:window-x="1192"
   inkscape:cy="25"
   inkscape:cx="70"
   inkscape:zoom="7.4642857"
   showgrid="false"
   id="namedview69"
   inkscape:window-height="1147"
   inkscape:window-width="1920"
   inkscape:pageshadow="2"
   inkscape:pageopacity="0"
   guidetolerance="10"
   gridtolerance="10"
   objecttolerance="10"
   borderopacity="1"
   bordercolor="#666666"
   pagecolor="#ffffff" />
<style
   id="style2"
   type="text/css">
	.st0{fill:none;}
	.st1{fill:#1A1A1A;}
	.st2{fill:#FFFFFF;}
</style>



<g
   id="g38">
</g>
<g
   id="g40">
</g>
<g
   id="g42">
</g>
<g
   id="g44">
</g>
<g
   id="g46">
</g>
<g
   id="g48">
</g>
<g
   id="g50">
</g>
<g
   id="g52">
</g>
<g
   id="g54">
</g>
<g
   id="g56">
</g>
<g
   id="g58">
</g>
<g
   id="g60">
</g>
<g
   id="g62">
</g>
<g
   id="g64">
</g>
<g
   id="g66">
</g>
<path
   style="fill:#ffffff;fill-opacity:1;fill-rule:nonzero;stroke:none;stroke-width:0.746122"
   d="m 43.126144,30.309409 c -0.243361,0 -0.243361,0 -0.243361,-0.254169 -0.243361,0 -0.243361,0 -0.243361,-0.254168 0.486722,-2.287516 0.486722,-2.287516 0.486722,-2.287516 0,-0.254168 0.243369,-0.508337 0.48673,-0.508337 0.973452,0 0.973452,0 0.973452,0 0.486729,-4.575033 0.486729,-4.575033 0.486729,-4.575033 -0.973452,0 -0.973452,0 -0.973452,0 0,0 -0.243368,0 -0.243368,-0.254168 0,0 0,0 0,-0.254168 0.243368,-2.287517 0.243368,-2.287517 0.243368,-2.287517 0,-0.254169 0.243362,-0.254169 0.486723,-0.254169 5.354004,0 5.354004,0 5.354004,0 0.243361,0 0.243361,0 0.486723,0 0,0 0,0.254169 0,0.254169 -0.243362,2.287517 -0.243362,2.287517 -0.243362,2.287517 0,0.254168 -0.243361,0.508336 -0.486729,0.508336 -0.973452,0 -0.973452,0 -0.973452,0 -0.730091,4.575033 -0.730091,4.575033 -0.730091,4.575033 0.973452,0 0.973452,0 0.973452,0 0.243368,0 0.243368,0.254169 0.243368,0.254169 0.243362,0 0.243362,0.254168 0.243362,0.254168 -0.48673,2.287516 -0.48673,2.287516 -0.48673,2.287516 0,0.254168 0,0.508337 -0.486722,0.508337 z"
   id="path194" /><path
   style="fill:#ffffff;fill-opacity:1;fill-rule:nonzero;stroke:none;stroke-width:0.746122"
   d="m 56.754509,22.176018 c 0.973452,0 1.703543,0.254168 1.946912,0.762505 0.486722,0.508338 0.73009,1.270843 0.73009,2.287517 -0.73009,4.575032 -0.73009,4.575032 -0.73009,4.575032 0,0.254168 -0.243369,0.508337 -0.48673,0.508337 -2.433634,0 -2.433634,0 -2.433634,0 -0.243368,0 -0.243368,0 -0.486729,-0.254169 0,0 0,0 0,-0.254168 0.486729,-3.558359 0.486729,-3.558359 0.486729,-3.558359 0,-0.762505 0,-1.016673 -0.486729,-1.016673 -0.48673,0 -0.730091,0.254168 -0.973453,1.016673 -0.486729,3.558359 -0.486729,3.558359 -0.486729,3.558359 0,0.254168 -0.243361,0.508337 -0.48673,0.508337 -2.433634,0 -2.433634,0 -2.433634,0 -0.243361,0 -0.243361,0 -0.243361,-0.254169 -0.243368,0 -0.243368,0 -0.243368,-0.254168 0.486729,-3.812527 0.486729,-3.812527 0.486729,-3.812527 0.243362,-0.254168 0.243362,-0.508337 0,-0.508337 0,-0.254168 0,-0.254168 -0.243361,-0.254168 0,0 0,0 0,0 -0.243368,0 -0.243368,0 -0.243368,0 -0.243362,-0.254169 -0.243362,-0.254169 -0.243362,-0.508338 0.243362,-1.779179 0.243362,-1.779179 0.243362,-1.779179 0,-0.254168 0.243368,-0.508337 0.486729,-0.508337 0.48673,-0.254168 0.973452,-0.254168 1.460182,-0.254168 0.973452,0 1.460182,0.254168 1.946911,1.016674 0.243362,-0.508337 0.486723,-0.762506 0.973453,-0.762506 0.486729,-0.254168 0.973452,-0.254168 1.460181,-0.254168 z"
   id="path196" /><path
   style="fill:#ffffff;fill-opacity:1;fill-rule:nonzero;stroke:none;stroke-width:0.746122"
   d="m 64.298779,30.563578 c -1.216813,0 -2.190273,-0.254169 -2.676995,-1.016674 -0.48673,-0.762505 -0.730091,-1.525011 -0.48673,-2.795854 0,-1.270842 0,-1.270842 0,-1.270842 -0.73009,0 -0.73009,0 -0.73009,0 -0.48673,0 -0.48673,-0.254168 -0.48673,-0.508337 0.243368,-2.033348 0.243368,-2.033348 0.243368,-2.033348 0,-0.254168 0.243362,-0.508337 0.486723,-0.508337 0.973459,0 0.973459,0 0.973459,0 0.243361,-1.779179 0.243361,-1.779179 0.243361,-1.779179 0,-0.254168 0.243361,-0.508337 0.48673,-0.508337 2.433634,0 2.433634,0 2.433634,0 0.486729,0 0.486729,0.254169 0.486729,0.508337 -0.243368,1.779179 -0.243368,1.779179 -0.243368,1.779179 1.70355,0 1.70355,0 1.70355,0 0.243361,0 0.486722,0.254169 0.243361,0.508337 -0.243361,2.033348 -0.243361,2.033348 -0.243361,2.033348 0,0.254169 -0.243368,0.508337 -0.48673,0.508337 -1.703542,0 -1.703542,0 -1.703542,0 0,1.016674 0,1.016674 0,1.016674 0,0.254168 0,0.508337 0.243361,0.762506 0,0 0.243361,0 0.730091,0 0.243361,0 0.486729,0 0.73009,0 0.243362,0 0.243362,0 0.48673,0 0,0 0,0.254168 0,0.508336 0,2.033348 0,2.033348 0,2.033348 0,0.254168 -0.243368,0.508337 -0.48673,0.508337 -0.73009,0.254169 -1.21682,0.254169 -1.946911,0.254169 z"
   id="path198" /><path
   style="fill:#ffffff;fill-opacity:1;fill-rule:nonzero;stroke:none;stroke-width:0.746122"
   d="m 74.76342,22.176018 c 0.243361,0 0.243361,0.254168 0.243361,0.508337 -0.48673,2.541685 -0.48673,2.541685 -0.48673,2.541685 -0.243361,0.254168 -0.243361,0.508337 -0.730091,0.508337 -0.243361,-0.254169 -0.486722,-0.254169 -0.486722,-0.254169 -0.973459,0 -1.460182,0.508337 -1.460182,1.270842 -0.48673,3.050022 -0.48673,3.050022 -0.48673,3.050022 0,0.254168 -0.243361,0.508337 -0.486729,0.508337 -2.433634,0 -2.433634,0 -2.433634,0 -0.243361,0 -0.243361,0 -0.48673,-0.254169 0,0 0,0 0,-0.254168 0.48673,-3.812527 0.48673,-3.812527 0.48673,-3.812527 0,-0.254168 0,-0.508337 0,-0.508337 0,-0.254168 0,-0.254168 -0.243361,-0.254168 0,0 0,0 0,0 -0.243369,0 -0.243369,0 -0.48673,0 0,-0.254169 0,-0.254169 0,-0.508338 0.243361,-1.779179 0.243361,-1.779179 0.243361,-1.779179 0,-0.254168 0.243369,-0.508337 0.48673,-0.508337 0.48673,-0.254168 0.973452,-0.254168 1.460182,-0.254168 0.730091,0 1.460181,0.254168 1.703543,0.762505 0.730091,-0.508337 1.460181,-0.762505 2.433641,-0.762505 0.243361,0 0.486722,0 0.730091,0 z"
   id="path200" /><path
   style="fill:#ffffff;fill-opacity:1;fill-rule:nonzero;stroke:none;stroke-width:0.746122"
   d="m 84.254594,27.513556 c 0,0 0.243369,0 0.243369,0 0,0.254168 0,0.254168 0,0.508337 0,1.779179 0,1.779179 0,1.779179 0,0.254168 -0.243369,0.508337 -0.48673,0.508337 -0.48673,0.254169 -0.973452,0.254169 -1.460182,0.254169 -0.973452,0 -1.703543,-0.254169 -1.946911,-1.016674 -0.973452,0.762505 -1.703543,1.016674 -2.676995,1.016674 -0.973459,0 -1.70355,-0.254169 -2.433635,-1.016674 -0.486729,-0.508337 -0.73009,-1.525011 -0.73009,-2.541685 0,-1.525011 0.486722,-2.541685 1.216814,-3.558358 0.73009,-1.016675 1.946911,-1.270843 3.163724,-1.270843 0.730091,0 1.460182,0.254168 1.946912,0.762505 0,-0.254168 0,-0.508337 0.486729,-0.508337 2.190273,0 2.190273,0 2.190273,0 0.486722,0 0.486722,0.254169 0.486722,0.508337 -0.486722,3.812527 -0.486722,3.812527 -0.486722,3.812527 0,0.254169 0,0.508338 0,0.508338 0,0.254168 0,0.254168 0.243361,0.254168 z m -5.353997,0.254168 c 0.48673,0 0.730091,0 1.216821,-0.508336 0.243361,-0.254169 0.243361,-0.762506 0.243361,-1.270843 0,-0.254168 0,-0.762505 -0.243361,-0.762505 -0.243369,-0.254169 -0.48673,-0.508338 -0.730091,-0.508338 -0.48673,0 -0.730091,0.254169 -0.97346,0.508338 -0.243361,0.508337 -0.486722,0.762505 -0.486722,1.270842 0,0.508337 0.243361,0.762506 0.243361,1.016674 0.243361,0.254168 0.48673,0.254168 0.730091,0.254168 z"
   id="path202" /><path
   style="fill:#ffffff;fill-opacity:1;fill-rule:nonzero;stroke:none;stroke-width:0.746122"
   d="m 92.042232,22.176018 c 0.730091,0 1.460182,0.254168 1.946912,0.762505 0.486722,0.508338 0.730091,1.270843 0.486722,2.287517 -0.486722,4.575032 -0.486722,4.575032 -0.486722,4.575032 0,0.254168 -0.243369,0.508337 -0.48673,0.508337 -2.677002,0 -2.677002,0 -2.677002,0 0,0 -0.243361,0 -0.243361,-0.254169 0,0 0,0 0,-0.254168 0.486729,-3.558359 0.486729,-3.558359 0.486729,-3.558359 0,-0.762505 -0.243368,-1.016673 -0.73009,-1.016673 -0.48673,0 -0.730091,0.254168 -0.730091,1.016673 -0.48673,3.558359 -0.48673,3.558359 -0.48673,3.558359 0,0.254168 -0.243361,0.508337 -0.48673,0.508337 -2.433633,0 -2.433633,0 -2.433633,0 -0.243362,0 -0.243362,0 -0.48673,-0.254169 0,0 0,0 0,-0.254168 0.48673,-3.812527 0.48673,-3.812527 0.48673,-3.812527 0,-0.254168 0,-0.508337 0,-0.508337 0,-0.254168 0,-0.254168 -0.243362,-0.254168 0,0 0,0 0,0 -0.243368,0 -0.486729,0 -0.486729,0 0,-0.254169 0,-0.254169 0,-0.508338 0.243361,-1.779179 0.243361,-1.779179 0.243361,-1.779179 0,-0.254168 0.243368,-0.508337 0.48673,-0.508337 0.486729,-0.254168 0.973452,-0.254168 1.460181,-0.254168 0.973452,0 1.460182,0.254168 1.946912,1.016674 0.243361,-0.508337 0.486722,-0.762506 0.973452,-0.762506 0.486729,-0.254168 0.973452,-0.254168 1.460181,-0.254168 z"
   id="path204" /><path
   style="fill:#ffffff;fill-opacity:1;fill-rule:nonzero;stroke:none;stroke-width:0.746122"
   d="m 98.856411,30.563578 c -0.973452,0 -1.946904,-0.254169 -2.676995,-1.016674 -0.73009,-0.762505 -0.973459,-1.525011 -0.973459,-2.541685 0,-1.525011 0.48673,-2.541685 1.216821,-3.558358 0.973452,-1.016675 2.190272,-1.270843 3.407093,-1.270843 1.460179,0 2.433639,0.254168 2.920359,1.016674 0.7301,0.762505 0.97346,1.779179 0.7301,3.050021 0,0.254169 0,0.254169 0,0.254169 -0.24337,0.254168 -0.24337,0.508337 -0.7301,0.508337 -4.380541,0 -4.380541,0 -4.380541,0 0,0.762505 0.243361,1.016674 0.973452,1.016674 0.243361,0 0.48673,0 0.730089,-0.254169 0.24336,-0.254168 0.24336,-0.254168 0.48673,-0.254168 2.19027,0 2.19027,0 2.19027,0 0.24337,0 0.24337,0 0.24337,0.254168 0.24336,0 0.24336,0 0,0.254169 -0.24337,0.762506 -0.73009,1.525011 -1.46019,1.779179 -0.73009,0.508337 -1.703539,0.762506 -2.676999,0.762506 z m -0.486722,-5.08337 c 2.433631,0 2.433631,0 2.433631,0 -0.24336,-0.254168 -0.24336,-0.508337 -0.48673,-0.762506 0,-0.254168 -0.24336,-0.254168 -0.730088,-0.254168 -0.243361,0 -0.486722,0 -0.730091,0.254168 -0.243361,0.254169 -0.243361,0.508338 -0.486722,0.762506 z"
   id="path206" /><path
   style="fill:#ffffff;fill-opacity:1;fill-rule:nonzero;stroke:none;stroke-width:0.746122"
   d="m 108.3476,30.563578 c -1.21682,0 -1.94691,-0.254169 -2.677,-1.016674 -0.48673,-0.762505 -0.73009,-1.525011 -0.48673,-2.795854 0.24336,-1.270842 0.24336,-1.270842 0.24336,-1.270842 -0.97345,0 -0.97345,0 -0.97345,0 -0.24336,0 -0.48673,-0.254168 -0.48673,-0.508337 0.24337,-2.033348 0.24337,-2.033348 0.24337,-2.033348 0.24336,-0.254168 0.24336,-0.508337 0.73009,-0.508337 0.73009,0 0.73009,0 0.73009,0 0.24336,-1.779179 0.24336,-1.779179 0.24336,-1.779179 0.24336,-0.254168 0.24336,-0.508337 0.48673,-0.508337 2.677,0 2.677,0 2.677,0 0.24336,0 0.24336,0.254169 0.24336,0.508337 -0.24336,1.779179 -0.24336,1.779179 -0.24336,1.779179 1.70355,0 1.70355,0 1.70355,0 0.24336,0 0.48672,0.254169 0.48672,0.508337 -0.48672,2.033348 -0.48672,2.033348 -0.48672,2.033348 0,0.254169 0,0.508337 -0.48673,0.508337 -1.46018,0 -1.46018,0 -1.46018,0 -0.24337,1.016674 -0.24337,1.016674 -0.24337,1.016674 0,0.254168 0,0.508337 0.24337,0.762506 0,0 0.24336,0 0.73009,0 0.24336,0 0.48673,0 0.73009,0 0.24336,0 0.48673,0 0.48673,0 0,0 0,0.254168 0,0.508336 0,2.033348 0,2.033348 0,2.033348 0,0.254168 0,0.508337 -0.48673,0.508337 -0.48673,0.254169 -1.21682,0.254169 -1.94691,0.254169 z"
   id="path208" /><path
   style="fill:#ffffff;fill-opacity:1;fill-rule:nonzero;stroke:none;stroke-width:0.746122"
   d="m 120.02905,30.563578 c -1.46018,0 -2.43363,-0.508338 -3.40709,-1.270843 -0.97346,-1.016674 -1.21682,-2.287516 -1.21682,-3.558358 0,-2.033348 0.48673,-3.558359 1.70355,-4.829202 1.21682,-1.270842 2.677,-2.033347 4.62391,-2.033347 1.46018,0 2.67699,0.508336 3.40709,1.270842 0.97345,0.762505 1.46018,2.033348 1.46018,3.304191 0,0.508336 -0.24336,0.508336 -0.48673,0.508336 -2.92036,0 -2.92036,0 -2.92036,0 -0.24337,0 -0.24337,0 -0.24337,-0.254168 -0.24336,-1.016674 -0.73009,-1.270843 -1.70354,-1.270843 -0.73009,0 -1.21682,0.254169 -1.70354,0.762506 -0.24337,0.508337 -0.48673,1.270842 -0.48673,2.033348 0,0.508337 0,1.016673 0.24336,1.52501 0.48673,0.254169 0.73009,0.508338 1.21682,0.508338 0.97345,0 1.70354,-0.508338 1.94691,-1.270843 0.24336,-0.254168 0.24336,-0.508337 0.73009,-0.508337 2.677,0 2.677,0 2.677,0 0,0 0.24336,0 0.24336,0.254169 0,0 0,0 0,0.254168 -0.48672,1.525011 -1.21682,2.541685 -2.19027,3.30419 -0.97346,0.762505 -2.19027,1.270843 -3.89382,1.270843 z"
   id="path210" /><path
   style="fill:#ffffff;fill-opacity:1;fill-rule:nonzero;stroke:none;stroke-width:0.746122"
   d="m 130.73705,30.563578 c -1.21682,0 -2.19027,-0.254169 -2.92036,-0.762506 -0.73009,-0.762505 -0.97345,-1.525011 -0.97345,-2.541684 0,0 0,-0.254169 0,-0.254169 0.24336,0 0.24336,-0.254169 0.48672,-0.254169 2.19027,0 2.19027,0 2.19027,0 0.24337,0 0.48673,0.254169 0.48673,0.508338 0.24336,0.254168 0.48673,0.508336 1.21682,0.508336 0.24336,0 0.73009,0 0.97345,-0.254168 0.24336,-0.254168 0.24336,-0.508337 0.24336,-1.016674 0,-0.254169 0,-0.508337 -0.24336,-0.508337 -0.24336,-0.254168 -0.48673,-0.254168 -0.73009,-0.254168 -0.48673,0 -0.73009,0 -0.97345,0 -0.24337,0.254168 -0.48673,0.254168 -0.73009,0.254168 -1.70355,-0.762505 -1.70355,-0.762505 -1.70355,-0.762505 -0.24336,0 -0.24336,-0.254169 -0.24336,-0.508338 1.46018,-5.083369 1.46018,-5.083369 1.46018,-5.083369 0,-0.254169 0.24336,-0.254169 0.48673,-0.254169 5.84073,0 5.84073,0 5.84073,0 0.24336,0 0.24336,0 0.24336,0.254169 -0.24336,2.033348 -0.24336,2.033348 -0.24336,2.033348 0,0.508337 -0.24337,0.508337 -0.48673,0.508337 -3.65046,0 -3.65046,0 -3.65046,0 -0.24336,1.016674 -0.24336,1.016674 -0.24336,1.016674 0.48672,-0.254169 0.73009,-0.254169 1.21681,-0.254169 0.97346,0 1.70355,0.254169 2.43365,0.762506 0.48672,0.762505 0.97345,1.525011 0.97345,2.287516 0,1.270843 -0.48673,2.541685 -1.46018,3.30419 -0.97346,0.762505 -2.19028,1.270843 -3.65046,1.270843 z"
   id="path212" /><path
   style="fill:#ffffff;fill-opacity:1;fill-rule:nonzero;stroke:none;stroke-width:0.746122"
   d="m 28.767693,29.292735 c 0,3.050022 -0.973454,5.591707 -2.433636,7.625054 0,-3.050021 0,-3.050021 0,-3.050021 0,-4.320864 -2.920363,-7.879223 -6.814181,-8.895897 1.946909,-0.762505 3.163727,-2.795853 3.163727,-5.083369 0,-3.050022 -2.433636,-5.591707 -5.354,-5.591707 -2.677,0 -5.110635,2.541685 -5.110635,5.591707 0,2.287516 1.216817,4.320864 3.163726,5.083369 -3.893817,1.016674 -6.8141809,4.575033 -6.8141809,8.895897 0,3.050021 0,3.050021 0,3.050021 -1.4601817,-2.033347 -2.4336366,-4.575032 -2.4336366,-7.625054 0,-18.554298 0,-18.554298 0,-18.554298 C 17.329603,8.1967521 17.329603,8.1967521 17.329603,8.1967521 c 11.43809,2.5416849 11.43809,2.5416849 11.43809,2.5416849 0,4.8292 0,4.8292 0,4.8292 2.920366,0 2.920366,0 2.920366,0 0,-7.1167166 0,-7.1167166 0,-7.1167166 -14.358456,-3.30419 -14.358456,-3.30419 -14.358456,-3.30419 -14.1150899,3.30419 -14.1150899,3.30419 -14.1150899,3.30419 0,20.8418146 0,20.8418146 0,20.8418146 0,8.38756 6.3274543,14.99594 14.1150899,14.99594 8.031,0 14.358456,-6.60838 14.358456,-14.99594 0,-0.762505 0,-0.762505 0,-0.762505 -2.920366,0 -2.920366,0 -2.920366,0 z M 17.329603,17.346817 c 1.460182,0 2.433636,1.270842 2.433636,2.541685 0,1.52501 -0.973454,2.541684 -2.433636,2.541684 -1.216818,0 -2.433636,-1.016674 -2.433636,-2.541684 0,-1.270843 1.216818,-2.541685 2.433636,-2.541685 z m -5.840726,22.366826 c 0,-5.845875 0,-5.845875 0,-5.845875 0,-3.30419 2.676999,-6.100044 5.840726,-6.100044 3.407091,0 6.084091,2.795854 6.084091,6.100044 0,5.845875 0,5.845875 0,5.845875 -1.703545,1.016673 -3.893818,1.779179 -6.084091,1.779179 -2.190272,0 -4.137181,-0.762506 -5.840726,-1.779179 z"
   id="path214" /><path
   style="fill:#ffffff;fill-opacity:1;fill-rule:nonzero;stroke:none;stroke-width:0.746122"
   d="m 30.227877,17.346817 c -2.433638,0 -4.380547,2.287516 -4.380547,4.829201 0,2.541684 1.946909,4.575032 4.380547,4.575032 2.433634,0 4.380545,-2.033348 4.380545,-4.575032 0,-2.541685 -1.946911,-4.829201 -4.380545,-4.829201 z m 0,6.60838 c -0.973456,0 -1.703547,-0.762505 -1.703547,-1.779179 0,-1.016674 0.730091,-1.779179 1.703547,-1.779179 0.973452,0 1.703543,0.762505 1.703543,1.779179 0,1.016674 -0.730091,1.779179 -1.703543,1.779179 z"
   id="path216" /></svg>
