<?xml version="1.0" encoding="UTF-8"?>
<!DOCTYPE svg PUBLIC "-//W3C//DTD SVG 1.1//EN" "http://www.w3.org/Graphics/SVG/1.1/DTD/svg11.dtd">
<!-- Creator: CorelDRAW 2018 (64 Bit) -->
<svg xmlns="http://www.w3.org/2000/svg" xml:space="preserve" width="600px" height="174px" version="1.1" style="shape-rendering:geometricPrecision; text-rendering:geometricPrecision; image-rendering:optimizeQuality; fill-rule:evenodd; clip-rule:evenodd"
viewBox="0 0 17.86 5.18"
 xmlns:xlink="http://www.w3.org/1999/xlink">
 <defs>
  <style type="text/css">
   <![CDATA[
    .str1 {stroke:black;stroke-width:0.12;stroke-miterlimit:10}
    .str0 {stroke:#9B3133;stroke-width:0.12;stroke-miterlimit:10}
    .fil2 {fill:#9C9E9C}
    .fil0 {fill:black}
    .fil1 {fill:#9B3133;fill-rule:nonzero}
    .fil3 {fill:black;fill-rule:nonzero}
    .fil4 {fill:#9B3133;fill-rule:nonzero}
   ]]>
  </style>
 </defs>
 <g id="Capa_x0020_1">
  <metadata id="CorelCorpID_0Corel-Layer"/>
  <path class="fil0" d="M7.58 2.88l-0.62 0 0 1.6 -0.37 0 0 -1.6 -0.61 0 0 -0.33 1.6 0 0 0.33zm0.75 0.49c-0.11,0 -0.21,0.02 -0.29,0.06 -0.09,0.04 -0.15,0.1 -0.19,0.19l0 0.86 -0.36 0 0 -1.43 0.33 0 0 0.31c0.02,-0.05 0.05,-0.09 0.09,-0.13 0.03,-0.04 0.07,-0.08 0.11,-0.1 0.04,-0.03 0.08,-0.06 0.12,-0.07 0.04,-0.02 0.08,-0.02 0.12,-0.02 0.02,0 0.03,0 0.04,0 0.01,0 0.02,0 0.03,0l0 0.33zm0.58 1.13c-0.07,0 -0.14,-0.01 -0.2,-0.03 -0.06,-0.02 -0.11,-0.05 -0.15,-0.09 -0.05,-0.05 -0.08,-0.09 -0.1,-0.15 -0.03,-0.05 -0.04,-0.11 -0.04,-0.18 0,-0.06 0.01,-0.13 0.04,-0.18 0.03,-0.06 0.08,-0.11 0.13,-0.15 0.05,-0.04 0.12,-0.07 0.19,-0.09 0.07,-0.02 0.16,-0.04 0.24,-0.04 0.07,0 0.13,0.01 0.19,0.02 0.06,0.01 0.12,0.03 0.16,0.05l0 -0.08c0,-0.1 -0.02,-0.17 -0.08,-0.22 -0.05,-0.05 -0.13,-0.08 -0.24,-0.08 -0.07,0 -0.15,0.02 -0.22,0.04 -0.07,0.03 -0.14,0.07 -0.22,0.12l-0.11 -0.23c0.18,-0.12 0.38,-0.18 0.59,-0.18 0.2,0 0.36,0.05 0.48,0.15 0.11,0.1 0.17,0.25 0.17,0.44l0 0.44c0,0.04 0,0.06 0.02,0.08 0.01,0.02 0.03,0.03 0.06,0.03l0 0.31c-0.06,0.01 -0.11,0.02 -0.16,0.02 -0.07,0 -0.12,-0.02 -0.16,-0.05 -0.03,-0.03 -0.06,-0.07 -0.07,-0.12l0 -0.08c-0.07,0.08 -0.14,0.15 -0.23,0.19 -0.09,0.04 -0.19,0.06 -0.29,0.06zm0.1 -0.26c0.06,0 0.12,-0.01 0.17,-0.03 0.06,-0.03 0.1,-0.06 0.13,-0.09 0.04,-0.03 0.06,-0.07 0.06,-0.1l0 -0.17c-0.04,-0.01 -0.09,-0.03 -0.14,-0.04 -0.05,-0.01 -0.1,-0.01 -0.15,-0.01 -0.09,0 -0.17,0.02 -0.23,0.06 -0.06,0.04 -0.09,0.1 -0.09,0.16 0,0.07 0.03,0.12 0.07,0.16 0.05,0.04 0.11,0.06 0.18,0.06zm0.98 -0.47c0,-0.1 0.01,-0.2 0.05,-0.29 0.03,-0.09 0.08,-0.16 0.15,-0.23 0.06,-0.07 0.14,-0.12 0.23,-0.16 0.1,-0.04 0.2,-0.06 0.31,-0.06 0.16,0 0.29,0.03 0.4,0.1 0.11,0.07 0.19,0.16 0.25,0.26l-0.36 0.11c-0.03,-0.05 -0.07,-0.09 -0.12,-0.12 -0.05,-0.03 -0.11,-0.04 -0.17,-0.04 -0.05,0 -0.1,0.01 -0.14,0.03 -0.05,0.02 -0.09,0.05 -0.12,0.09 -0.04,0.03 -0.06,0.08 -0.08,0.13 -0.02,0.05 -0.03,0.11 -0.03,0.18 0,0.06 0.01,0.12 0.03,0.17 0.02,0.05 0.05,0.1 0.08,0.14 0.03,0.03 0.07,0.06 0.12,0.08 0.04,0.02 0.09,0.03 0.14,0.03 0.07,0 0.13,-0.01 0.18,-0.04 0.06,-0.04 0.1,-0.08 0.12,-0.12l0.35 0.1c-0.05,0.11 -0.13,0.2 -0.24,0.27 -0.11,0.07 -0.24,0.1 -0.4,0.1 -0.12,0 -0.22,-0.02 -0.31,-0.06 -0.1,-0.04 -0.18,-0.09 -0.24,-0.16 -0.07,-0.07 -0.12,-0.14 -0.15,-0.23 -0.04,-0.09 -0.05,-0.19 -0.05,-0.28zm2.59 0.71l-0.41 -0.62 -0.2 0.19 0 0.43 -0.36 0 0 -1.98 0.36 0 0 1.2 0.57 -0.64 0.39 0 -0.53 0.6 0.57 0.82 -0.39 0zm0.54 0l0 -1.43 0.36 0 0 1.43 -0.36 0zm0 -1.62l0 0 0.36 0 0 0 -0.36 0zm2.02 1.62l-0.37 0 0 -0.8c0,-0.12 -0.02,-0.2 -0.06,-0.25 -0.04,-0.05 -0.09,-0.08 -0.16,-0.08 -0.04,0 -0.08,0.01 -0.11,0.02 -0.04,0.02 -0.08,0.04 -0.11,0.06 -0.04,0.03 -0.07,0.06 -0.09,0.1 -0.03,0.03 -0.05,0.07 -0.06,0.12l0 0.83 -0.37 0 0 -1.43 0.33 0 0 0.27c0.05,-0.09 0.13,-0.16 0.23,-0.21 0.1,-0.05 0.21,-0.08 0.34,-0.08 0.09,0 0.16,0.02 0.21,0.05 0.06,0.03 0.1,0.07 0.13,0.13 0.03,0.05 0.06,0.11 0.07,0.18 0.01,0.06 0.02,0.13 0.02,0.2l0 0.89zm0.87 0.01c-0.1,0 -0.18,-0.02 -0.26,-0.06 -0.08,-0.04 -0.15,-0.09 -0.2,-0.16 -0.06,-0.06 -0.1,-0.14 -0.13,-0.23 -0.04,-0.08 -0.05,-0.18 -0.05,-0.27 0,-0.11 0.02,-0.2 0.05,-0.29 0.03,-0.09 0.08,-0.17 0.13,-0.24 0.06,-0.06 0.13,-0.11 0.21,-0.15 0.08,-0.04 0.17,-0.06 0.27,-0.06 0.11,0 0.21,0.02 0.29,0.07 0.09,0.05 0.15,0.12 0.21,0.2l0 -0.25 0.32 0 0 1.36c0,0.1 -0.02,0.2 -0.06,0.28 -0.04,0.08 -0.1,0.16 -0.17,0.21 -0.07,0.06 -0.15,0.11 -0.25,0.14 -0.09,0.03 -0.2,0.04 -0.31,0.04 -0.16,0 -0.29,-0.02 -0.4,-0.08 -0.1,-0.05 -0.19,-0.12 -0.27,-0.21l0.2 -0.2c0.05,0.07 0.12,0.12 0.2,0.16 0.09,0.04 0.17,0.06 0.27,0.06 0.05,0 0.11,-0.01 0.16,-0.02 0.05,-0.02 0.09,-0.04 0.13,-0.08 0.04,-0.03 0.08,-0.07 0.1,-0.12 0.02,-0.05 0.03,-0.11 0.03,-0.18l0 -0.18c-0.05,0.08 -0.11,0.14 -0.2,0.19 -0.08,0.04 -0.17,0.07 -0.27,0.07zm0.12 -0.3c0.04,0 0.08,0 0.12,-0.01 0.03,-0.02 0.07,-0.03 0.1,-0.06 0.03,-0.02 0.05,-0.04 0.08,-0.07 0.02,-0.03 0.04,-0.06 0.05,-0.09l0 -0.34c-0.03,-0.09 -0.08,-0.15 -0.15,-0.2 -0.07,-0.06 -0.14,-0.08 -0.22,-0.08 -0.06,0 -0.11,0.01 -0.15,0.04 -0.05,0.02 -0.09,0.05 -0.12,0.09 -0.03,0.04 -0.06,0.09 -0.07,0.14 -0.02,0.06 -0.03,0.11 -0.03,0.17 0,0.05 0.01,0.11 0.03,0.16 0.02,0.05 0.05,0.09 0.08,0.13 0.04,0.04 0.08,0.07 0.13,0.09 0.04,0.02 0.1,0.03 0.15,0.03z"/>
  <polygon class="fil1" points="13.11,2.86 13.11,2.49 13.49,2.49 13.49,2.86 "/>
  <polygon class="fil0" points="4.74,3.75 4.76,3.72 4.77,3.69 4.79,3.65 4.8,3.62 4.81,3.59 4.82,3.56 4.83,3.53 4.84,3.5 4.85,3.47 4.86,3.44 4.86,3.41 4.87,3.38 4.87,3.35 4.88,3.32 4.88,3.29 4.88,3.26 4.88,3.23 4.88,3.2 4.89,3.17 4.89,3.15 4.89,3.12 4.89,3.09 4.89,3.07 4.89,3.04 4.88,3.02 4.88,2.99 4.88,2.97 4.88,2.94 4.88,2.92 4.88,2.9 4.88,2.87 4.88,2.85 4.87,2.83 4.86,2.81 4.85,2.78 4.84,2.76 4.83,2.75 4.82,2.73 4.81,2.71 4.79,2.7 4.78,2.69 4.76,2.68 4.75,2.67 4.73,2.67 4.71,2.66 4.7,2.66 4.68,2.66 4.66,2.66 4.64,2.66 4.62,2.67 4.6,2.68 4.58,2.69 4.56,2.7 4.55,2.71 4.53,2.73 4.51,2.75 4.49,2.77 4.47,2.79 4.45,2.81 4.43,2.84 4.41,2.87 4.39,2.9 4.38,2.94 4.36,2.97 4.42,3.01 4.47,3.18 4.04,3.5 2.88,3.53 3.51,4.61 3.6,4.56 3.68,4.52 3.76,4.48 3.83,4.44 3.9,4.4 3.96,4.37 4.02,4.33 4.08,4.3 4.13,4.27 4.18,4.24 4.23,4.21 4.27,4.18 4.31,4.16 4.34,4.13 4.38,4.11 4.41,4.08 4.44,4.06 4.47,4.04 4.49,4.02 4.51,4 4.54,3.97 4.56,3.95 4.58,3.93 4.6,3.91 4.62,3.89 4.63,3.87 4.65,3.85 4.67,3.83 4.69,3.81 4.71,3.79 4.72,3.77 "/>
  <path class="fil2" d="M1.77 0.78l0.33 0.01 0.98 0.74 -0.37 -0.04 -0.94 -0.71zm0.01 -0.78l0.37 0.03 -0.04 -0.01 -0.03 0 -0.04 0 -0.03 0 -0.04 0.01 -0.03 0 -0.03 0 -0.02 0 -0.03 0.01 -0.03 0 -0.02 0.01 -0.03 0 -0.02 0.01 -0.03 0 -0.02 0.01 -0.03 0 -0.02 0.01 -0.03 0 -0.03 0.02 -0.03 0.02 -0.03 0.02 -0.02 0.02 -0.03 0.02 -0.02 0.02 -0.03 0.02 -0.02 0.02 -0.02 0.02 -0.02 0.02 -0.02 0.02 -0.02 0.03 -0.02 0.02 -0.02 0.02 -0.01 0.03 -0.02 0.02 -0.01 0.02 -0.02 0.03 -0.01 0.02 -0.02 0.03 -0.01 0.02 -0.01 0.02 -0.02 0.03 -0.01 0.02 -0.01 0.02 -0.01 0.03 -0.01 0.02 -0.01 0.02 -0.01 0.02 -0.01 0.02 -0.01 0.02 -0.01 0.02 -0.01 0.03 0 0.02 -0.01 0.03 0 0.02 0 0.03 0.01 0.02 0 0.02 0.01 0.02 0 0.02 0.01 0.02 0.01 0.02 0.01 0.02 0.02 0.01 0.01 0.02 0.02 0.01 0.01 0.01 0.02 0.01 0.02 0.01 0.02 0 0.02 0.01 0.02 0 -0.36 -0.03 -0.03 0 -0.02 -0.01 -0.02 -0.01 -0.02 0 -0.01 -0.01 -0.02 -0.01 -0.02 -0.02 -0.01 -0.01 -0.01 -0.02 -0.01 -0.01 -0.01 -0.02 -0.01 -0.02 -0.01 -0.02 0 -0.02 -0.01 -0.02 0 -0.02 0 -0.03 0 -0.02 0 -0.03 0.01 -0.02 0 -0.03 0.01 -0.02 0.01 -0.02 0.01 -0.02 0.01 -0.02 0.01 -0.02 0.01 -0.02 0.02 -0.03 0.01 -0.02 0.01 -0.02 0.01 -0.03 0.01 -0.02 0.02 -0.02 0.01 -0.03 0.01 -0.02 0.02 -0.02 0.02 -0.03 0.01 -0.02 0.02 -0.02 0.02 -0.03 0.01 -0.02 0.02 -0.02 0.02 -0.02 0.02 -0.03 0.03 -0.02 0.02 -0.02 0.02 -0.02 0.03 -0.02 0.02 -0.02 0.03 -0.02 0.02 -0.02 0.03 -0.01 0.03 -0.02 0.03 -0.01 0.02 0 0.03 -0.01 0.02 0 0.03 -0.01 0.02 0 0.03 -0.01 0.02 0 0.03 -0.01 0.03 0 0.02 0 0.03 -0.01 0.03 0 0.04 0 0.03 0 0.04 0 0.03 0 0.04 0z"/>
  <polygon class="fil2" points="3.85,0.71 3.96,1.28 3.58,2.59 3.2,2.54 3.58,1.25 3.49,0.76 3.27,0.75 3.24,0.72 3.22,0.69 3.2,0.66 3.19,0.63 3.17,0.6 3.16,0.57 3.14,0.55 3.14,0.52 3.13,0.49 3.12,0.47 3.12,0.44 3.11,0.41 3.11,0.39 3.11,0.37 3.12,0.34 3.12,0.32 3.13,0.3 3.13,0.28 3.14,0.26 3.15,0.24 3.16,0.22 3.17,0.21 3.19,0.19 3.2,0.18 3.22,0.17 3.23,0.16 3.25,0.15 3.27,0.14 3.29,0.14 3.31,0.14 3.33,0.13 3.35,0.13 3.73,0.16 3.71,0.16 3.69,0.16 3.67,0.16 3.65,0.17 3.63,0.18 3.61,0.18 3.59,0.19 3.58,0.21 3.56,0.22 3.55,0.23 3.54,0.25 3.53,0.27 3.52,0.29 3.51,0.3 3.5,0.32 3.5,0.35 3.49,0.37 3.49,0.39 3.49,0.42 3.49,0.44 3.5,0.47 3.5,0.49 3.51,0.52 3.51,0.55 3.52,0.57 3.54,0.6 3.55,0.63 3.56,0.66 3.65,0.78 3.7,0.72 "/>
  <polygon class="fil2" points="1.12,3.31 1.01,3.29 1.04,3.32 "/>
  <polygon class="fil2" points="0.61,1.36 0.98,1.4 0.93,1.49 0.88,1.58 0.83,1.67 0.79,1.75 0.75,1.83 0.71,1.91 0.68,1.98 0.65,2.04 0.62,2.11 0.59,2.16 0.57,2.22 0.54,2.27 0.52,2.32 0.51,2.37 0.49,2.41 0.47,2.45 0.46,2.49 0.45,2.53 0.44,2.57 0.43,2.6 0.42,2.64 0.41,2.67 0.41,2.7 0.4,2.73 0.39,2.76 0.39,2.79 0.38,2.82 0.38,2.85 0.37,2.87 0.37,2.9 0.37,2.93 0.36,2.97 0.36,3 0.37,3.04 0.37,3.08 0.38,3.11 0.39,3.15 0.39,3.18 0.4,3.21 0.41,3.24 0.42,3.27 0.43,3.3 0.44,3.33 0.46,3.36 0.47,3.39 0.48,3.41 0.49,3.44 0.51,3.46 0.52,3.49 0.53,3.51 0.55,3.53 0.56,3.56 0.58,3.58 0.59,3.6 0.61,3.62 0.62,3.64 0.64,3.66 0.65,3.68 0.67,3.7 0.68,3.71 0.69,3.73 0.71,3.75 0.72,3.77 0.73,3.78 0.75,3.8 0.77,3.81 0.79,3.82 0.81,3.83 0.83,3.84 0.85,3.84 0.49,3.78 0.47,3.78 0.45,3.77 0.43,3.76 0.41,3.75 0.39,3.74 0.37,3.73 0.36,3.71 0.34,3.69 0.33,3.68 0.32,3.66 0.3,3.64 0.29,3.62 0.27,3.6 0.26,3.58 0.25,3.56 0.23,3.54 0.22,3.52 0.2,3.5 0.19,3.48 0.17,3.46 0.16,3.43 0.15,3.41 0.13,3.38 0.12,3.36 0.11,3.33 0.09,3.31 0.08,3.28 0.07,3.25 0.06,3.22 0.05,3.19 0.04,3.16 0.03,3.13 0.03,3.09 0.02,3.06 0.01,3.03 0.01,2.99 0,2.95 0,2.92 0,2.89 0.01,2.86 0.01,2.83 0.02,2.8 0.02,2.77 0.03,2.74 0.03,2.71 0.04,2.68 0.04,2.65 0.05,2.62 0.06,2.59 0.07,2.56 0.08,2.52 0.09,2.49 0.1,2.45 0.11,2.41 0.13,2.37 0.14,2.32 0.16,2.28 0.18,2.23 0.21,2.18 0.23,2.12 0.26,2.06 0.28,2 0.32,1.94 0.35,1.87 0.39,1.79 0.43,1.72 0.47,1.63 0.51,1.55 0.56,1.46 "/>
  <path class="fil2" d="M2.43 4.36l0.38 0.06 -0.02 0.09 -0.12 0.11 -0.25 -0.21 0.01 -0.05zm-0.91 -1.42l0.37 0.05 -0.69 1.13 0.06 0.08 0.06 0.07 0.06 0.07 0.05 0.07 0.06 0.06 0.05 0.06 0.04 0.05 0.05 0.05 0.04 0.05 0.04 0.04 0.04 0.04 0.03 0.04 0.04 0.03 0.03 0.03 0.03 0.03 0.03 0.03 0.03 0.02 0.02 0.02 0.03 0.02 0.02 0.02 0.03 0.02 0.02 0.02 0.03 0.01 0.02 0.01 0.02 0.02 0.02 0.01 0.02 0.01 0.03 0.01 0.02 0.01 0.02 0.02 0.02 0.01 0.03 0.01 -0.37 -0.07 -0.03 -0.01 -0.02 -0.01 -0.02 -0.01 -0.02 -0.01 -0.03 -0.02 -0.02 -0.01 -0.02 -0.01 -0.02 -0.01 -0.02 -0.02 -0.03 -0.01 -0.02 -0.02 -0.02 -0.01 -0.03 -0.02 -0.03 -0.02 -0.02 -0.02 -0.03 -0.03 -0.03 -0.02 -0.03 -0.03 -0.03 -0.03 -0.04 -0.03 -0.03 -0.04 -0.04 -0.04 -0.04 -0.04 -0.04 -0.05 -0.04 -0.05 -0.05 -0.05 -0.05 -0.06 -0.05 -0.06 -0.06 -0.07 -0.05 -0.07 -0.06 -0.07 -0.07 -0.08 0.69 -1.12z"/>
  <polygon class="fil2" points="4.31,2.61 4.7,2.66 4.68,2.66 4.66,2.66 4.64,2.66 4.62,2.67 4.6,2.68 4.58,2.69 4.56,2.7 4.55,2.71 4.53,2.73 4.51,2.75 4.49,2.77 4.47,2.79 4.45,2.81 4.43,2.84 4.41,2.87 4.39,2.9 4.38,2.94 4.36,2.97 4.42,3.01 4.47,3.18 4.04,3.5 2.88,3.53 3.51,4.61 3.14,4.54 2.51,3.48 3.66,3.45 4.08,3.13 4.04,2.97 3.98,2.92 3.99,2.89 4.01,2.85 4.03,2.82 4.05,2.79 4.07,2.77 4.08,2.74 4.1,2.72 4.12,2.7 4.14,2.68 4.16,2.67 4.18,2.65 4.2,2.64 4.22,2.63 4.24,2.62 4.26,2.62 4.28,2.62 4.29,2.61 "/>
  <path class="fil3" d="M17.62 4.5l-0.01 -0.08c0.07,-0.01 0.1,-0.04 0.1,-0.1 0,-0.02 -0.01,-0.05 -0.02,-0.06 -0.01,-0.02 -0.03,-0.02 -0.05,-0.02 -0.01,0 -0.02,0 -0.03,0 -0.01,0.01 -0.02,0.02 -0.02,0.03 -0.01,0.01 -0.02,0.04 -0.03,0.08 -0.01,0.04 -0.02,0.06 -0.04,0.08 -0.01,0.02 -0.03,0.03 -0.05,0.04 -0.02,0.01 -0.05,0.02 -0.07,0.02 -0.03,0 -0.06,-0.01 -0.08,-0.02 -0.02,-0.02 -0.04,-0.03 -0.05,-0.06 -0.01,-0.02 -0.02,-0.05 -0.02,-0.08 0,-0.06 0.01,-0.1 0.04,-0.12 0.03,-0.03 0.07,-0.05 0.12,-0.05l0.01 0.09c-0.03,0 -0.05,0.01 -0.06,0.02 -0.01,0.02 -0.02,0.03 -0.02,0.06 0,0.02 0.01,0.04 0.01,0.05 0.01,0.02 0.03,0.02 0.04,0.02 0.02,0 0.03,0 0.04,-0.01 0.01,-0.02 0.02,-0.04 0.03,-0.08 0.01,-0.05 0.03,-0.08 0.04,-0.1 0.02,-0.02 0.03,-0.04 0.06,-0.05 0.02,-0.01 0.05,-0.01 0.08,-0.01 0.04,0 0.08,0.01 0.12,0.04 0.03,0.03 0.04,0.07 0.04,0.13 0,0.11 -0.06,0.17 -0.18,0.18zm0.17 -0.43l-0.53 0 0 -0.32 0.09 0 0 0.24 0.12 0 0 -0.22 0.09 0 0 0.22 0.14 0 0 -0.25 0.09 0 0 0.33zm0 -0.4l-0.53 0 0 -0.19c0,-0.05 0,-0.08 0.01,-0.1 0.01,-0.02 0.03,-0.04 0.05,-0.05 0.03,-0.02 0.06,-0.02 0.09,-0.02 0.04,0 0.07,0.01 0.1,0.03 0.03,0.02 0.04,0.05 0.05,0.08 0.01,-0.02 0.03,-0.03 0.04,-0.04 0.02,-0.02 0.05,-0.03 0.09,-0.05l0.1 -0.06 0 0.11 -0.11 0.06c-0.04,0.02 -0.07,0.04 -0.08,0.05 -0.01,0.01 -0.02,0.02 -0.02,0.02 -0.01,0.01 -0.01,0.03 -0.01,0.05l0 0.02 0.22 0 0 0.09zm-0.3 -0.09l0 -0.07c0,-0.04 -0.01,-0.06 -0.01,-0.07 0,-0.02 -0.01,-0.02 -0.02,-0.03 -0.01,-0.01 -0.03,-0.01 -0.04,-0.01 -0.02,0 -0.03,0 -0.04,0.01 -0.02,0.01 -0.02,0.01 -0.03,0.03 0,0 0,0.03 0,0.07l0 0.07 0.14 0zm0.3 -0.46l-0.53 0.16 0 -0.1 0.39 -0.11 -0.39 -0.1 0 -0.1 0.53 0.16 0 0.09zm0 -0.29l-0.53 0 0 -0.33 0.09 0 0 0.24 0.12 0 0 -0.22 0.09 0 0 0.22 0.14 0 0 -0.25 0.09 0 0 0.34zm0 -0.41l-0.53 0 0 -0.19c0,-0.04 0,-0.08 0.01,-0.1 0.01,-0.02 0.03,-0.04 0.05,-0.05 0.03,-0.01 0.06,-0.02 0.09,-0.02 0.04,0 0.07,0.01 0.1,0.03 0.03,0.02 0.04,0.05 0.05,0.09 0.01,-0.02 0.03,-0.04 0.04,-0.05 0.02,-0.01 0.05,-0.03 0.09,-0.05l0.1 -0.05 0 0.1 -0.11 0.07c-0.04,0.02 -0.07,0.03 -0.08,0.04 -0.01,0.01 -0.02,0.02 -0.02,0.03 -0.01,0.01 -0.01,0.02 -0.01,0.04l0 0.02 0.22 0 0 0.09zm-0.3 -0.09l0 -0.06c0,-0.04 -0.01,-0.07 -0.01,-0.08 0,-0.01 -0.01,-0.02 -0.02,-0.03 -0.01,0 -0.03,-0.01 -0.04,-0.01 -0.02,0 -0.03,0.01 -0.04,0.01 -0.02,0.01 -0.02,0.02 -0.03,0.03 0,0.01 0,0.03 0,0.07l0 0.07 0.14 0z"/>
  <path class="fil4 str0" d="M5.77 1.46l0 -0.16 0.57 0 0 0.5c-0.09,0.08 -0.18,0.13 -0.27,0.16 -0.09,0.04 -0.19,0.06 -0.28,0.06 -0.13,0 -0.25,-0.03 -0.36,-0.09 -0.11,-0.06 -0.19,-0.14 -0.24,-0.25 -0.05,-0.11 -0.08,-0.23 -0.08,-0.36 0,-0.13 0.03,-0.26 0.08,-0.37 0.05,-0.12 0.13,-0.2 0.23,-0.26 0.1,-0.06 0.22,-0.08 0.35,-0.08 0.1,0 0.19,0.01 0.26,0.04 0.08,0.04 0.14,0.08 0.19,0.14 0.04,0.06 0.07,0.13 0.1,0.22l-0.16 0.05c-0.02,-0.07 -0.05,-0.13 -0.08,-0.17 -0.03,-0.04 -0.07,-0.07 -0.12,-0.09 -0.06,-0.03 -0.12,-0.04 -0.19,-0.04 -0.08,0 -0.15,0.01 -0.2,0.04 -0.06,0.02 -0.11,0.06 -0.15,0.1 -0.03,0.04 -0.06,0.08 -0.08,0.13 -0.03,0.09 -0.05,0.18 -0.05,0.28 0,0.12 0.02,0.22 0.06,0.3 0.04,0.08 0.1,0.15 0.18,0.19 0.08,0.03 0.16,0.05 0.25,0.05 0.07,0 0.15,-0.01 0.22,-0.04 0.07,-0.03 0.13,-0.06 0.16,-0.1l0 -0.25 -0.39 0zm0.83 0.53l0 -1.36 0.59 0c0.11,0 0.2,0.01 0.27,0.04 0.06,0.02 0.11,0.06 0.14,0.13 0.04,0.06 0.06,0.13 0.06,0.2 0,0.1 -0.03,0.18 -0.09,0.25 -0.06,0.06 -0.16,0.11 -0.28,0.12 0.04,0.03 0.08,0.05 0.1,0.07 0.05,0.05 0.1,0.11 0.15,0.18l0.23 0.37 -0.22 0 -0.18 -0.28c-0.05,-0.08 -0.09,-0.14 -0.13,-0.19 -0.03,-0.04 -0.06,-0.07 -0.08,-0.09 -0.03,-0.02 -0.06,-0.03 -0.08,-0.04 -0.02,0 -0.06,0 -0.1,0l-0.21 0 0 0.6 -0.17 0zm0.17 -0.76l0.38 0c0.08,0 0.14,-0.01 0.19,-0.02 0.04,-0.02 0.08,-0.05 0.1,-0.09 0.03,-0.03 0.04,-0.07 0.04,-0.12 0,-0.06 -0.02,-0.12 -0.07,-0.16 -0.05,-0.04 -0.12,-0.06 -0.22,-0.06l-0.42 0 0 0.45zm2.04 -0.6l0.17 0 0 0.79c0,0.14 -0.01,0.24 -0.04,0.32 -0.03,0.09 -0.09,0.15 -0.17,0.2 -0.08,0.05 -0.18,0.08 -0.31,0.08 -0.12,0 -0.22,-0.02 -0.3,-0.07 -0.08,-0.04 -0.14,-0.11 -0.17,-0.19 -0.04,-0.08 -0.05,-0.2 -0.05,-0.34l0 -0.79 0.17 0 0 0.79c0,0.12 0.01,0.2 0.03,0.26 0.03,0.06 0.06,0.1 0.12,0.13 0.05,0.03 0.11,0.04 0.19,0.04 0.13,0 0.22,-0.03 0.27,-0.09 0.06,-0.06 0.09,-0.17 0.09,-0.34l0 -0.79zm0.46 1.36l0 -1.36 0.5 0c0.09,0 0.16,0 0.21,0.01 0.06,0.01 0.12,0.03 0.16,0.07 0.04,0.03 0.08,0.07 0.11,0.13 0.02,0.05 0.04,0.12 0.04,0.18 0,0.12 -0.04,0.22 -0.11,0.3 -0.07,0.08 -0.2,0.12 -0.39,0.12l-0.34 0 0 0.55 -0.18 0zm0.18 -0.71l0.34 0c0.12,0 0.2,-0.02 0.24,-0.07 0.05,-0.04 0.08,-0.1 0.08,-0.18 0,-0.06 -0.02,-0.11 -0.05,-0.15 -0.02,-0.04 -0.06,-0.06 -0.11,-0.08 -0.03,-0.01 -0.08,-0.01 -0.16,-0.01l-0.34 0 0 0.49zm1.01 0.05c0,-0.23 0.06,-0.4 0.17,-0.53 0.12,-0.13 0.28,-0.19 0.46,-0.19 0.13,0 0.24,0.03 0.33,0.09 0.1,0.06 0.18,0.14 0.23,0.25 0.05,0.11 0.08,0.23 0.08,0.36 0,0.14 -0.03,0.27 -0.08,0.38 -0.06,0.1 -0.14,0.19 -0.24,0.24 -0.1,0.06 -0.2,0.09 -0.32,0.09 -0.12,0 -0.23,-0.03 -0.33,-0.1 -0.1,-0.06 -0.18,-0.14 -0.23,-0.25 -0.05,-0.11 -0.07,-0.22 -0.07,-0.34zm0.18 0c0,0.17 0.04,0.3 0.13,0.39 0.08,0.1 0.19,0.14 0.32,0.14 0.13,0 0.24,-0.04 0.33,-0.14 0.08,-0.1 0.13,-0.23 0.13,-0.41 0,-0.11 -0.02,-0.21 -0.06,-0.29 -0.04,-0.08 -0.09,-0.15 -0.16,-0.19 -0.07,-0.05 -0.15,-0.07 -0.24,-0.07 -0.12,0 -0.23,0.04 -0.32,0.13 -0.09,0.09 -0.13,0.24 -0.13,0.44z"/>
  <path class="fil3 str1" d="M11.72 2.04l0.51 -1.36 0.19 0 0.54 1.36 -0.2 0 -0.15 -0.41 -0.56 0 -0.14 0.41 -0.19 0zm0.38 -0.56l0.45 0 -0.13 -0.38c-0.13,-0.35 -0.06,-0.32 -0.17,-0.02l-0.15 0.4zm1.01 0.56l0 -1.36 0.59 0c0.11,0 0.2,0.01 0.27,0.03 0.06,0.03 0.11,0.07 0.14,0.13 0.04,0.07 0.06,0.14 0.06,0.21 0,0.1 -0.03,0.18 -0.09,0.25 -0.06,0.06 -0.16,0.1 -0.29,0.12 0.05,0.02 0.09,0.05 0.11,0.07 0.05,0.05 0.1,0.11 0.15,0.18l0.23 0.37 -0.22 0 -0.18 -0.28c-0.05,-0.08 -0.09,-0.15 -0.13,-0.19 -0.03,-0.04 -0.06,-0.07 -0.09,-0.09 -0.02,-0.02 -0.05,-0.03 -0.08,-0.04 -0.02,0 -0.05,0 -0.09,0l-0.21 0 0 0.6 -0.17 0zm0.17 -0.76l0.38 0c0.08,0 0.14,-0.01 0.19,-0.03 0.04,-0.01 0.08,-0.04 0.1,-0.08 0.03,-0.03 0.04,-0.08 0.04,-0.12 0,-0.06 -0.03,-0.12 -0.07,-0.16 -0.05,-0.04 -0.12,-0.06 -0.22,-0.06l-0.42 0 0 0.45zm1.47 0.76l0 -1.2 -0.44 0 0 -0.16 1.05 0 0 0.16 -0.44 0 0 1.2 -0.17 0zm0.8 0l0 -1.36 0.96 0 0 0.16 -0.79 0 0 0.42 0.74 0 0 0.16 -0.74 0 0 0.46 0.82 0 0 0.16 -0.99 0zm1.23 0l0 -1.36 0.5 0c0.09,0 0.16,0 0.2,0.01 0.07,0.01 0.12,0.03 0.17,0.06 0.04,0.04 0.08,0.08 0.1,0.14 0.03,0.05 0.04,0.11 0.04,0.18 0,0.12 -0.03,0.22 -0.1,0.3 -0.08,0.08 -0.21,0.12 -0.39,0.12l-0.34 0 0 0.55 -0.18 0zm0.18 -0.71l0.34 0c0.11,0 0.19,-0.02 0.24,-0.07 0.05,-0.04 0.07,-0.1 0.07,-0.18 0,-0.06 -0.01,-0.11 -0.04,-0.15 -0.03,-0.04 -0.06,-0.07 -0.11,-0.08 -0.03,-0.01 -0.08,-0.01 -0.16,-0.01l-0.34 0 0 0.49z"/>
  <path class="fil0" d="M0.36 2.97l0 0.03 0.01 0.04 0 0.04 0.01 0.03 0.01 0.04 0 0.03 0.01 0.03 0.01 0.03 0.01 0.03 0.01 0.03 0.01 0.03 0.02 0.03 0.01 0.03 0.01 0.02 0.01 0.03 0.02 0.02 0.01 0.03 0.01 0.02 0.02 0.02 0.01 0.03 0.02 0.02 0.01 0.02 0.02 0.02 0.01 0.02 0.02 0.02 0.01 0.02 0.02 0.02 0.01 0.01 0.01 0.02 0.02 0.02 0.01 0.02 0.01 0.01 0.02 0.02 0.02 0.01 0.02 0.01 0.02 0.01 0.02 0.01 0.02 0 0.02 0 0.02 0 0.02 0 0.02 0 0.01 -0.01 0.02 -0.01 0.02 -0.01 0.01 0 0.01 -0.02 0.11 -0.18 0 -0.02 0.01 -0.03 0 -0.03 0.01 -0.03 0 -0.04 0 -0.03 0 -0.04 -0.01 -0.04 0 -0.04 -0.08 0.01 -0.03 -0.03 -0.1 -0.07 0.2 -0.56 0.98 -0.85 -1.11 -0.41 -0.05 0.09 -0.05 0.09 -0.05 0.09 -0.04 0.08 -0.04 0.08 -0.04 0.08 -0.03 0.07 -0.03 0.06 -0.03 0.07 -0.03 0.05 -0.02 0.06 -0.03 0.05 -0.02 0.05 -0.01 0.05 -0.02 0.04 -0.02 0.04 0 0 -0.01 0.04 -0.01 0.04 -0.01 0.04 -0.01 0.03 -0.01 0.04 -0.01 0.03 0 0.03 -0.01 0.03 -0.01 0.03 0 0.03 -0.01 0.03 0 0.03 -0.01 0.02 0 0.03 0 0.03 -0.01 0.04zm0.65 0.32l0 0 0 0z"/>
  <polygon class="fil0" points="2.29,5.16 2.32,5.17 2.35,5.17 2.38,5.17 2.41,5.17 2.44,5.18 2.47,5.17 2.5,5.17 2.53,5.17 2.56,5.17 2.58,5.16 2.61,5.16 2.64,5.15 2.66,5.14 2.69,5.14 2.71,5.13 2.74,5.12 2.76,5.11 2.78,5.1 2.81,5.09 2.83,5.08 2.85,5.07 2.87,5.06 2.89,5.05 2.91,5.04 2.93,5.02 2.95,5.01 2.97,5 2.99,4.99 3.01,4.98 3.03,4.97 3.05,4.96 3.07,4.95 3.08,4.93 3.1,4.91 3.11,4.9 3.13,4.88 3.14,4.86 3.15,4.84 3.16,4.82 3.16,4.8 3.17,4.78 3.17,4.75 3.17,4.73 3.17,4.71 3.17,4.69 3.17,4.67 3.16,4.65 3.15,4.63 3.14,4.61 3.13,4.59 3.12,4.57 3.11,4.56 3.09,4.54 3.08,4.52 3.06,4.51 3.04,4.49 3.01,4.48 2.99,4.47 2.96,4.46 2.93,4.45 2.91,4.44 2.87,4.43 2.84,4.42 2.81,4.42 2.79,4.51 2.67,4.62 2.42,4.41 2.42,4.4 2.28,4.27 1.89,2.99 1.2,4.12 1.26,4.2 1.32,4.27 1.38,4.34 1.43,4.41 1.49,4.47 1.54,4.53 1.58,4.58 1.63,4.63 1.67,4.68 1.71,4.72 1.75,4.76 1.78,4.8 1.82,4.83 1.85,4.86 1.88,4.89 1.91,4.92 1.94,4.94 1.96,4.96 1.99,4.98 2.01,5 2.04,5.02 2.06,5.04 2.09,5.05 2.11,5.06 2.13,5.08 2.15,5.09 2.17,5.1 2.2,5.11 2.22,5.12 2.24,5.14 2.24,5.14 2.26,5.15 "/>
  <polygon class="fil0" points="1.63,0.08 1.6,0.1 1.57,0.12 1.54,0.14 1.52,0.16 1.49,0.18 1.47,0.2 1.44,0.22 1.42,0.24 1.4,0.26 1.38,0.28 1.36,0.3 1.34,0.33 1.32,0.35 1.3,0.37 1.29,0.4 1.27,0.42 1.26,0.44 1.24,0.47 1.23,0.49 1.21,0.52 1.2,0.54 1.19,0.56 1.17,0.59 1.16,0.61 1.15,0.63 1.14,0.66 1.13,0.68 1.12,0.7 1.11,0.72 1.1,0.74 1.1,0.74 1.09,0.76 1.08,0.78 1.07,0.81 1.07,0.83 1.06,0.86 1.06,0.88 1.06,0.91 1.07,0.93 1.07,0.95 1.08,0.97 1.08,0.99 1.09,1.01 1.1,1.03 1.11,1.05 1.13,1.06 1.14,1.08 1.16,1.09 1.17,1.1 1.19,1.11 1.21,1.12 1.23,1.12 1.25,1.13 1.27,1.13 1.3,1.13 1.32,1.13 1.35,1.13 1.37,1.12 1.4,1.12 1.43,1.11 1.46,1.1 1.49,1.08 1.52,1.07 1.55,1.05 1.58,1.03 1.55,0.95 1.59,0.77 2.1,0.79 3.08,1.53 3.07,0.19 2.98,0.17 2.89,0.15 2.81,0.13 2.73,0.11 2.66,0.1 2.59,0.08 2.52,0.07 2.46,0.06 2.4,0.05 2.34,0.05 2.29,0.04 2.24,0.03 2.2,0.03 2.15,0.03 2.11,0.02 2.08,0.02 2.04,0.02 2.01,0.02 1.97,0.03 1.94,0.03 1.91,0.03 1.89,0.03 1.86,0.04 1.83,0.04 1.81,0.05 1.78,0.05 1.76,0.06 1.73,0.06 1.73,0.06 1.71,0.07 1.68,0.07 1.66,0.08 "/>
  <polygon class="fil0" points="4.42,0.57 4.4,0.54 4.38,0.51 4.35,0.49 4.33,0.47 4.31,0.44 4.29,0.42 4.27,0.4 4.25,0.38 4.22,0.37 4.2,0.35 4.18,0.33 4.16,0.32 4.13,0.31 4.11,0.29 4.09,0.28 4.07,0.27 4.04,0.26 4.02,0.25 4,0.24 3.98,0.23 3.95,0.22 3.93,0.22 3.91,0.21 3.89,0.2 3.87,0.2 3.85,0.19 3.83,0.18 3.81,0.18 3.79,0.17 3.77,0.17 3.75,0.16 3.73,0.16 3.71,0.16 3.69,0.16 3.67,0.16 3.65,0.17 3.63,0.18 3.61,0.18 3.59,0.19 3.58,0.21 3.56,0.22 3.55,0.23 3.54,0.25 3.53,0.27 3.52,0.29 3.52,0.29 3.51,0.3 3.5,0.32 3.5,0.35 3.49,0.37 3.49,0.39 3.49,0.42 3.49,0.44 3.5,0.47 3.5,0.49 3.51,0.52 3.51,0.55 3.52,0.57 3.54,0.6 3.55,0.63 3.56,0.66 3.65,0.78 3.7,0.72 3.85,0.71 3.96,1.28 3.58,2.59 4.66,2.18 4.66,2.07 4.66,1.97 4.65,1.87 4.65,1.78 4.64,1.7 4.63,1.62 4.63,1.54 4.62,1.47 4.62,1.4 4.61,1.34 4.6,1.28 4.6,1.23 4.59,1.17 4.58,1.13 4.57,1.08 4.57,1.04 4.56,1 4.55,0.96 4.54,0.93 4.53,0.9 4.52,0.86 4.52,0.83 4.51,0.81 4.5,0.78 4.49,0.75 4.48,0.73 4.47,0.7 4.46,0.67 4.45,0.65 4.44,0.62 4.43,0.6 "/>
 </g>
</svg>
